# xmcd
#
# Track frame offsets: 
#        150
#        22065
#        43743
#        55820
#        74039
#        94433
#        107264
#        120951
#        141138
#        159994
#        177046
#
# Disc length: 2544 seconds
#
# Revision: 1
# Processed by: cddbd v1.5.2PL0 Copyright (c) Steve Scherf et al.
# Submitted via: ExactAudioCopyFreeDBPlugin 1.0
#
DISCID=9109ee0b
DTITLE=MGK - Snitsja Dozhd'
DYEAR=2005
DGENRE=Pop
TTITLE0=Snitsja Dozhd'
TTITLE1=Serdce
TTITLE2=Pjatnadcat' Dnej
TTITLE3=Svetlyj Berlin
TTITLE4=Kostjor
TTITLE5=Strannyj Vecer
TTITLE6=Ja ischu dorogu k nebu
TTITLE7=Letnij Sad
TTITLE8=Zhizn' bez lubvi
TTITLE9=Perekrjostok
TTITLE10=Gde ty?
EXTD=
EXTT0=
EXTT1=
EXTT2=
EXTT3=
EXTT4=
EXTT5=
EXTT6=
EXTT7=
EXTT8=
EXTT9=
EXTT10=
PLAYORDER=
